<?xml version="1.0" encoding="UTF-8" standalone="no"?>
<svg
   width="60"
   height="60"
   viewBox="0 0 21000 29700"
   version="1.1"
   id="svg3"
   xmlns="http://www.w3.org/2000/svg"
   xmlns:svg="http://www.w3.org/2000/svg">
  <defs
     id="defs3" />
  <style
     type="text/css"
     id="style1">&#10;        .fil3 {fill:#0960A7}&#10;        .fil1 {fill:#61DCF5}&#10;        .fil2 {fill:white}&#10;        .fil0 {fill:url(#id1)}&#10;    </style>
  <rect
     class="fil1"
     x="-3767.7683"
     y="1212.3267"
     width="28615.258"
     height="27652.889"
     rx="6261.4907"
     ry="6054.3989"
     id="rect2"
     style="display:inline;stroke-width:6.09096" />
  <g
     id="g3"
     transform="matrix(6.0909446,0,0,6.0909446,-53415.055,-75411.755)">
    <path
       class="fil2"
       d="m 10500,15479 c 386,-1 539,-246 684,-562 95,-206 177,-433 232,-566 v 1899 c 0,37 30,67 67,67 h 556 c 37,0 67,-30 67,-67 v -2800 c 0,-37 -30,-68 -67,-67 h -314 c -366,0 -585,167 -763,468 -130,220 -236,490 -323,694 -18,41 -40,114 -70,165 -22,37 -45,56 -68,57 -23,-1 -46,-20 -68,-57 -30,-51 -53,-123 -70,-165 -87,-204 -193,-475 -323,-694 -178,-301 -397,-468 -763,-468 h -314 c -37,0 -67,30 -67,67 v 2800 c 0,37 30,67 67,67 h 556 c 37,0 67,-30 67,-67 v -1899 c 55,133 138,360 232,566 145,316 298,561 684,562 z"
       id="path2"
       style="display:inline" />
    <path
       class="fil3"
       d="m 9584,14987 c 92,229 206,413 364,547 140,119 313,202 553,199 240,2 412,-80 553,-199 158,-134 271,-317 364,-547 v -636 c -55,133 -138,360 -232,566 -145,316 -298,561 -684,562 -386,-1 -539,-246 -684,-562 -95,-206 -177,-433 -232,-566 v 636 z"
       id="path3"
       style="display:inline" />
  </g>
</svg>
